<?xml version="1.0" encoding="utf-8"?>
<!-- Generator: Fusion 360, Shaper Origin Export Add-In, Version 1.7.0  -->
<svg xmlns="http://www.w3.org/2000/svg" xmlns:xlink="http://www.w3.org/1999/xlink" xmlns:shaper="http://www.shapertools.com/namespaces/shaper" shaper:fusionaddin="version:1.7.0" width="2.506369cm" height="16.2177843cm" version="1.1" x="0cm" y="0cm" viewBox="0 0 2.506369 16.2177843" enable-background="new 0 0 2.506369 16.2177843" xml:space="preserve"><path d="M-1.6836571,14.005732 L-3.0945864,12.9237619 A0.71,0.71 127.4827665 0,1 -3.3725352,12.3603511 L-3.3725352,-1.6088205 A0.5,0.5 180 0,1 -2.5189818,-1.9623739 L-1.0599365,-0.5033286 A0.6615731,0.6615731 315 0,1 -0.8661662,-0.0355258 L-0.8661662,12.6598153 -0.8794439,13.6159068 A0.5,0.5 0.7956424 0,1 -1.6836571,14.005732z" transform="matrix(1,0,0,-1,3.3725352,14.1089637)" fill="rgb(0,0,0)" stroke-linecap="round" stroke-linejoin="round" /><path d="M-1.5786375,10.5830569 A0.0508,0.0508 0 0,0 -1.6294375,10.5322569 L-1.9901175,10.5322569 A0.0508,0.0508 270 0,0 -2.0409175,10.5830569 L-2.0409175,10.9437369 A0.0508,0.0508 180 0,0 -1.9901175,10.9945369 L-1.6294375,10.9945369 A0.0508,0.0508 90 0,0 -1.5786375,10.9437369 L-1.5786375,10.5830569z" transform="matrix(1,0,0,-1,3.3725352,14.1089637)" fill="rgb(255,255,255)" stroke="rgb(0,0,0)" stroke-width="0.0010cm" stroke-linecap="round" stroke-linejoin="round" /><path d="M-1.5786375,9.3130569 A0.0508,0.0508 0 0,0 -1.6294375,9.2622569 L-1.9901175,9.2622569 A0.0508,0.0508 270 0,0 -2.0409175,9.3130569 L-2.0409175,9.6737369 A0.0508,0.0508 180 0,0 -1.9901175,9.7245369 L-1.6294375,9.7245369 A0.0508,0.0508 90 0,0 -1.5786375,9.6737369 L-1.5786375,9.3130569z" transform="matrix(1,0,0,-1,3.3725352,14.1089637)" fill="rgb(255,255,255)" stroke="rgb(0,0,0)" stroke-width="0.0010cm" stroke-linecap="round" stroke-linejoin="round" /><path d="M-1.6294375,2.1045369 A0.0508,0.0508 90 0,0 -1.5786375,2.0537369 L-1.5786375,1.6930569 A0.0508,0.0508 0 0,0 -1.6294375,1.6422569 L-1.9901175,1.6422569 A0.0508,0.0508 270 0,0 -2.0409175,1.6930569 L-2.0409175,2.0537369 A0.0508,0.0508 180 0,0 -1.9901175,2.1045369 L-1.6294375,2.1045369z" transform="matrix(1,0,0,-1,3.3725352,14.1089637)" fill="rgb(255,255,255)" stroke="rgb(0,0,0)" stroke-width="0.0010cm" stroke-linecap="round" stroke-linejoin="round" /><path d="M-2.0409175,0.7837369 A0.0508,0.0508 180 0,0 -1.9901175,0.8345369 L-1.6294375,0.8345369 A0.0508,0.0508 90 0,0 -1.5786375,0.7837369 L-1.5786375,0.4230569 A0.0508,0.0508 0 0,0 -1.6294375,0.3722569 L-1.9901175,0.3722569 A0.0508,0.0508 270 0,0 -2.0409175,0.4230569 L-2.0409175,0.7837369z" transform="matrix(1,0,0,-1,3.3725352,14.1089637)" fill="rgb(255,255,255)" stroke="rgb(0,0,0)" stroke-width="0.0010cm" stroke-linecap="round" stroke-linejoin="round" /></svg>
