<?xml version="1.0" encoding="utf-8"?>
<!-- Generator: Fusion 360, Shaper Origin Export Add-In, Version 1.8.0  -->
<svg xmlns="http://www.w3.org/2000/svg" xmlns:xlink="http://www.w3.org/1999/xlink" xmlns:shaper="http://www.shapertools.com/namespaces/shaper" shaper:fusionaddin="version:1.8.0" width="4.1794707cm" height="3.5881821cm" version="1.1" x="0cm" y="0cm" viewBox="0 0 4.1794707 3.5881821" enable-background="new 0 0 4.1794707 3.5881821" xml:space="preserve"><path d="M1.5455138,1.1533976 L-1.1946163,1.1533976 A0.5,0.5 85.5019558 0,1 -1.6321039,0.3526514 L-0.1913827,-1.9122212 A0.2,0.2 206.5910989 0,1 -0.1088037,-1.9980052 L0.6500792,-2.4147255 A0.15,0.15 241.2277801 0,1 0.8537595,-2.3554438 L0.9379151,-2.2021894 1.6632502,-0.9131489 2.3386872,0.4066458 2.4279956,0.553368 A0.15,0.15 331.928107 0,1 2.3662288,0.7563085 L1.6221886,1.1306162 A0.2,0.2 61.9172484 0,1 1.5455138,1.1533976z" transform="matrix(1,0,0,-1,1.7338288,1.1549376)" fill="rgb(0,0,0)" shaper:cutDepth="0.15cm" stroke-linecap="round" stroke-linejoin="round" /><path d="M1.5179323,0.3536056 A0.0508,0.0508 241.2277801 0,0 1.4978556,0.4225854 L1.6714612,0.7387359 A0.0508,0.0508 151.2277801 0,0 1.740441,0.7588126 L2.0565915,0.585207 A0.0508,0.0508 61.2277801 0,0 2.0766682,0.5162272 L1.9030626,0.2000767 A0.0508,0.0508 331.2277801 0,0 1.8340828,0.18 L1.5179323,0.3536056z" transform="matrix(1,0,0,-1,1.7338288,1.1549376)" fill="rgb(255,255,255)" stroke="rgb(0,0,0)" stroke-width="0.0010cm" stroke-linecap="round" stroke-linejoin="round" shaper:cutDepth="0.15cm" /><path d="M0.6780809,-2.030718 A0.0508,0.0508 331.2277801 0,0 0.6091012,-2.0507947 L0.2929507,-1.8771891 A0.0508,0.0508 241.2277801 0,0 0.2728739,-1.8082093 L0.4464796,-1.4920588 A0.0508,0.0508 151.2277801 0,0 0.5154593,-1.4719821 L0.8316098,-1.6455877 A0.0508,0.0508 61.2277801 0,0 0.8516866,-1.7145675 L0.6780809,-2.030718z" transform="matrix(1,0,0,-1,1.7338288,1.1549376)" fill="rgb(255,255,255)" stroke="rgb(0,0,0)" stroke-width="0.0010cm" stroke-linecap="round" stroke-linejoin="round" shaper:cutDepth="0.15cm" /></svg>
