<?xml version="1.0" encoding="utf-8"?>
<!-- Generator: Fusion 360, Shaper Origin Export Add-In, Version 1.8.0  -->
<svg xmlns="http://www.w3.org/2000/svg" xmlns:xlink="http://www.w3.org/1999/xlink" xmlns:shaper="http://www.shapertools.com/namespaces/shaper" shaper:fusionaddin="version:1.8.0" width="8.9105898cm" height="5.0698821cm" version="1.1" x="0cm" y="0cm" viewBox="0 0 8.9105898 5.0698821" enable-background="new 0 0 8.9105898 5.0698821" xml:space="preserve"><path d="M-2.9566405,-0.2064403 A0.3175,0.3175 154.5499572 0,0 -2.671494,-0.0253814 L2.385719,-0.000799 A0.3175,0.3175 90.2785046 0,0 2.6740998,-0.4544221 L2.4937878,-0.8343636 1.3293656,-3.2879575 A0.3175,0.3175 154.6237765 0,1 1.4802215,-3.7109184 L1.8896197,-3.9051099 A0.3175,0.3175 244.623427 0,1 2.312554,-3.754315 L4.4161691,0.6805672 A0.3175,0.3175 334.623427 0,1 4.1293045,1.1341368 L-3.3418799,1.1341368 A0.3175,0.3175 90 0,1 -3.6279527,0.9543633 L-4.4323581,-0.716473 A0.3175,0.3175 154.2920313 0,1 -4.2838079,-1.1403705 L-3.8526607,-1.347563 A0.3175,0.3175 244.3328799 0,1 -3.4284483,-1.1978294 L-2.9566405,-0.2064403z" transform="matrix(1,0,0,-1,4.4637853,1.1341368)" fill="rgb(0,0,0)" shaper:cutDepth="0.15cm" stroke-linecap="round" stroke-linejoin="round" /><path d="M2.4748056,-2.5040717 A0.0508,0.0508 334.623427 0,0 2.4071361,-2.5281989 L2.0812579,-2.3736238 A0.0508,0.0508 244.623427 0,0 2.0571307,-2.3059544 L2.2117058,-1.9800762 A0.0508,0.0508 154.623427 0,0 2.2793753,-1.955949 L2.6052535,-2.110524 A0.0508,0.0508 64.623427 0,0 2.6293807,-2.1781935 L2.4748056,-2.5040717z" transform="matrix(1,0,0,-1,4.4637853,1.1341368)" fill="rgb(255,255,255)" stroke="rgb(0,0,0)" stroke-width="0.0010cm" stroke-linecap="round" stroke-linejoin="round" shaper:cutDepth="0.15cm" /><path d="M1.9305271,-3.6515302 A0.0508,0.0508 334.623427 0,0 1.8628576,-3.6756574 L1.5369794,-3.5210823 A0.0508,0.0508 244.623427 0,0 1.5128522,-3.4534128 L1.6674273,-3.1275346 A0.0508,0.0508 154.623427 0,0 1.7350968,-3.1034074 L2.060975,-3.2579825 A0.0508,0.0508 64.623427 0,0 2.0851022,-3.325652 L1.9305271,-3.6515302z" transform="matrix(1,0,0,-1,4.4637853,1.1341368)" fill="rgb(255,255,255)" stroke="rgb(0,0,0)" stroke-width="0.0010cm" stroke-linecap="round" stroke-linejoin="round" shaper:cutDepth="0.15cm" /><path d="M-3.4857694,0.7632418 A0.0508,0.0508 154.623427 0,0 -3.4180999,0.787369 L-3.0922217,0.6327939 A0.0508,0.0508 64.623427 0,0 -3.0680945,0.5651244 L-3.2226696,0.2392462 A0.0508,0.0508 334.623427 0,0 -3.2903391,0.215119 L-3.6162173,0.3696941 A0.0508,0.0508 244.623427 0,0 -3.6403445,0.4373636 L-3.4857694,0.7632418z" transform="matrix(1,0,0,-1,4.4637853,1.1341368)" fill="rgb(255,255,255)" stroke="rgb(0,0,0)" stroke-width="0.0010cm" stroke-linecap="round" stroke-linejoin="round" shaper:cutDepth="0.15cm" /><path d="M4.0126897,0.6848088 A0.0508,0.0508 64.623427 0,0 4.0368169,0.6171393 L3.8822418,0.2912611 A0.0508,0.0508 334.623427 0,0 3.8145723,0.2671339 L3.4886941,0.421709 A0.0508,0.0508 244.623427 0,0 3.4645669,0.4893784 L3.619142,0.8152567 A0.0508,0.0508 154.623427 0,0 3.6868115,0.8393838 L4.0126897,0.6848088z" transform="matrix(1,0,0,-1,4.4637853,1.1341368)" fill="rgb(255,255,255)" stroke="rgb(0,0,0)" stroke-width="0.0010cm" stroke-linecap="round" stroke-linejoin="round" shaper:cutDepth="0.15cm" /><path d="M0.4906503,0.7075696 A0.0508,0.0508 64.623427 0,0 0.5147775,0.6399001 L0.3602024,0.3140219 A0.0508,0.0508 334.623427 0,0 0.2925329,0.2898947 L-0.0333453,0.4444698 A0.0508,0.0508 244.623427 0,0 -0.0574725,0.5121393 L0.0971026,0.8380175 A0.0508,0.0508 154.623427 0,0 0.1647721,0.8621447 L0.4906503,0.7075696z" transform="matrix(1,0,0,-1,4.4637853,1.1341368)" fill="rgb(255,255,255)" stroke="rgb(0,0,0)" stroke-width="0.0010cm" stroke-linecap="round" stroke-linejoin="round" shaper:cutDepth="0.15cm" /><path d="M-4.1604958,-0.7777644 A0.0508,0.0508 244.623427 0,0 -4.184623,-0.7100949 L-4.0300479,-0.3842167 A0.0508,0.0508 154.623427 0,0 -3.9623784,-0.3600895 L-3.6365002,-0.5146646 A0.0508,0.0508 64.623427 0,0 -3.612373,-0.5823341 L-3.7669481,-0.9082123 A0.0508,0.0508 334.623427 0,0 -3.8346176,-0.9323395 L-4.1604958,-0.7777644z" transform="matrix(1,0,0,-1,4.4637853,1.1341368)" fill="rgb(255,255,255)" stroke="rgb(0,0,0)" stroke-width="0.0010cm" stroke-linecap="round" stroke-linejoin="round" shaper:cutDepth="0.15cm" /></svg>
