<?xml version="1.0" encoding="utf-8"?>
<!-- Generator: Fusion 360, Shaper Origin Export Add-In, Version 1.7.0  -->
<svg xmlns="http://www.w3.org/2000/svg" xmlns:xlink="http://www.w3.org/1999/xlink" xmlns:shaper="http://www.shapertools.com/namespaces/shaper" shaper:fusionaddin="version:1.7.0" width="25.4133885cm" height="8cm" version="1.1" x="0cm" y="0cm" viewBox="0 0 25.4133885 8" enable-background="new 0 0 25.4133885 8" xml:space="preserve"><path d="M12.7066942,-3.6 L12.7066942,3.6 A0.4,0.4 0 0,1 12.6940489,3.6997817 A0.4,0.4 14.4452269 0,1 12.6757269,3.7543208 L12.6757269,3.7543208 12.6725571,3.7616922 12.6725571,3.7616922 12.6705511,3.7661581 12.6681563,3.771306 12.6653248,3.7771559 12.6617095,3.7842942 12.6594401,3.7886016 12.6566522,3.7937254 12.6532698,3.7997136 12.6493476,3.8063702 12.6404806,3.8204239 12.6355647,3.8276947 12.6299469,3.8356008 A0.4,0.4 36.0862171 0,1 12.5416489,3.9237226 A0.4,0.4 54.0282278 0,1 12.3657213,3.9956208 A0.4,0.4 81.5140086 0,1 12.3066942,4 L-12.3066942,4 A0.4,0.4 90 0,1 -12.3657213,3.9956208 A0.4,0.4 98.4859914 0,1 -12.5789511,3.8930464 A0.4,0.4 132.8938444 0,1 -12.6299469,3.8356008 L-12.6299469,3.8356008 -12.6308084,3.8344144 -12.632079,3.8326482 -12.6338662,3.8301273 -12.6361202,3.8268864 -12.641654,3.818632 -12.6479355,3.8086936 -12.6549047,3.7968408 -12.6621725,3.7833966 -12.6692483,3.7689601 -12.6757269,3.7543208 A0.4,0.4 157.3064633 0,1 -12.7059511,3.6243712 A0.4,0.4 176.5069192 0,1 -12.7066942,3.6 L-12.7066942,-3.6 A0.4,0.4 180 0,1 -12.3066942,-4 L12.3066942,-4 A0.4,0.4 270 0,1 12.7066942,-3.6z" transform="matrix(1,0,0,-1,12.7066942,4)" fill="rgb(0,0,0)" shaper:cutDepth="1.547cm" stroke-linecap="round" stroke-linejoin="round" /><path d="M-11.8398111,3.1802808 A0.0508,0.0508 0 0,0 -11.8906111,3.1294808 L-12.2512911,3.1294808 A0.0508,0.0508 270 0,0 -12.3020911,3.1802808 L-12.3020911,3.5409608 A0.0508,0.0508 180 0,0 -12.2512911,3.5917608 L-11.8906111,3.5917608 A0.0508,0.0508 90 0,0 -11.8398111,3.5409608 L-11.8398111,3.1802808z" transform="matrix(1,0,0,-1,12.7066942,4)" fill="rgb(255,255,255)" stroke="rgb(0,0,0)" stroke-width="0.0010cm" stroke-linecap="round" stroke-linejoin="round" shaper:cutDepth="1.547cm" /><path d="M-11.8398111,0.6402808 A0.0508,0.0508 0 0,0 -11.8906111,0.5894808 L-12.2512911,0.5894808 A0.0508,0.0508 270 0,0 -12.3020911,0.6402808 L-12.3020911,1.0009608 A0.0508,0.0508 180 0,0 -12.2512911,1.0517608 L-11.8906111,1.0517608 A0.0508,0.0508 90 0,0 -11.8398111,1.0009608 L-11.8398111,0.6402808z" transform="matrix(1,0,0,-1,12.7066942,4)" fill="rgb(255,255,255)" stroke="rgb(0,0,0)" stroke-width="0.0010cm" stroke-linecap="round" stroke-linejoin="round" shaper:cutDepth="1.547cm" /><path d="M12.2901889,3.1802808 A0.0508,0.0508 0 0,0 12.2393889,3.1294808 L11.8787089,3.1294808 A0.0508,0.0508 270 0,0 11.8279089,3.1802808 L11.8279089,3.5409608 A0.0508,0.0508 180 0,0 11.8787089,3.5917608 L12.2393889,3.5917608 A0.0508,0.0508 90 0,0 12.2901889,3.5409608 L12.2901889,3.1802808z" transform="matrix(1,0,0,-1,12.7066942,4)" fill="rgb(255,255,255)" stroke="rgb(0,0,0)" stroke-width="0.0010cm" stroke-linecap="round" stroke-linejoin="round" shaper:cutDepth="1.547cm" /><path d="M12.2901889,0.6402808 A0.0508,0.0508 0 0,0 12.2393889,0.5894808 L11.8787089,0.5894808 A0.0508,0.0508 270 0,0 11.8279089,0.6402808 L11.8279089,1.0009608 A0.0508,0.0508 180 0,0 11.8787089,1.0517608 L12.2393889,1.0517608 A0.0508,0.0508 90 0,0 12.2901889,1.0009608 L12.2901889,0.6402808z" transform="matrix(1,0,0,-1,12.7066942,4)" fill="rgb(255,255,255)" stroke="rgb(0,0,0)" stroke-width="0.0010cm" stroke-linecap="round" stroke-linejoin="round" shaper:cutDepth="1.547cm" /></svg>
