<?xml version="1.0" encoding="utf-8"?>
<!-- Generator: Fusion 360, Shaper Origin Export Add-In, Version 1.7.0  -->
<svg xmlns="http://www.w3.org/2000/svg" xmlns:xlink="http://www.w3.org/1999/xlink" xmlns:shaper="http://www.shapertools.com/namespaces/shaper" shaper:fusionaddin="version:1.7.0" width="34.3948202cm" height="11.2819594cm" version="1.1" x="0cm" y="0cm" viewBox="0 0 34.3948202 11.2819594" enable-background="new 0 0 34.3948202 11.2819594" xml:space="preserve"><path d="M-11.8107922,5.1948138 L-16.8270131,1.1297369 A1,1 129.0208367 0,1 -17.1974101,0.3528198 L-17.1974101,-4.6409797 A1,1 180 0,1 -16.1974101,-5.6409797 L16.1974101,-5.6409797 A1,1 270 0,1 17.1974101,-4.6409797 L17.1974101,-0.1239325 A2,2 0 0,1 16.456616,1.4299016 L11.8107922,5.1948138 A2,2 50.9791633 0,1 10.5515863,5.6409797 L-10.5515863,5.6409797 A2,2 90 0,1 -11.8107922,5.1948138z" transform="matrix(1,0,0,-1,17.1974101,5.6409797)" fill="rgb(0,0,0)" shaper:cutDepth="0.15cm" stroke-linecap="round" stroke-linejoin="round" /><path d="M-4.3424695,5.0599435 a0.2289303,0.2289303 0 1,1 0.4578605,0 a0.2289303,0.2289303 0 1,1 -0.4578605,0z" transform="matrix(1,0,0,-1,17.1974101,5.6409797)" fill="rgb(255,255,255)" stroke="rgb(0,0,0)" stroke-width="0.0010cm" stroke-linecap="round" stroke-linejoin="round" shaper:cutDepth="0.15cm" /><path d="M-7.8056119,3.0551371 a0.4631929,0.4631929 0 1,1 0.9263857,0 a0.4631929,0.4631929 0 1,1 -0.9263857,0z" transform="matrix(1,0,0,-1,17.1974101,5.6409797)" fill="rgb(255,255,255)" stroke="rgb(0,0,0)" stroke-width="0.0010cm" stroke-linecap="round" stroke-linejoin="round" shaper:cutDepth="0.15cm" /><path d="M4.6822699,-3.3235474 a0.3337899,0.3337899 0 1,1 0.6675797,0 a0.3337899,0.3337899 0 1,1 -0.6675797,0z" transform="matrix(1,0,0,-1,17.1974101,5.6409797)" fill="rgb(255,255,255)" stroke="rgb(0,0,0)" stroke-width="0.0010cm" stroke-linecap="round" stroke-linejoin="round" shaper:cutDepth="0.15cm" /><path d="M4.6958729,-2.044863 a0.3337899,0.3337899 0 1,1 0.6675797,0 a0.3337899,0.3337899 0 1,1 -0.6675797,0z" transform="matrix(1,0,0,-1,17.1974101,5.6409797)" fill="rgb(255,255,255)" stroke="rgb(0,0,0)" stroke-width="0.0010cm" stroke-linecap="round" stroke-linejoin="round" shaper:cutDepth="0.15cm" /><path d="M-6.7262089,-2.044863 a0.3337899,0.3337899 0 1,1 0.6675797,0 a0.3337899,0.3337899 0 1,1 -0.6675797,0z" transform="matrix(1,0,0,-1,17.1974101,5.6409797)" fill="rgb(255,255,255)" stroke="rgb(0,0,0)" stroke-width="0.0010cm" stroke-linecap="round" stroke-linejoin="round" shaper:cutDepth="0.15cm" /><path d="M-6.7398119,-3.3235474 a0.3337899,0.3337899 0 1,1 0.6675797,0 a0.3337899,0.3337899 0 1,1 -0.6675797,0z" transform="matrix(1,0,0,-1,17.1974101,5.6409797)" fill="rgb(255,255,255)" stroke="rgb(0,0,0)" stroke-width="0.0010cm" stroke-linecap="round" stroke-linejoin="round" shaper:cutDepth="0.15cm" /></svg>
