<?xml version="1.0" encoding="utf-8"?>
<!-- Generator: Fusion 360, Shaper Origin Export Add-In, Version 1.7.0  -->
<svg xmlns="http://www.w3.org/2000/svg" xmlns:xlink="http://www.w3.org/1999/xlink" xmlns:shaper="http://www.shapertools.com/namespaces/shaper" shaper:fusionaddin="version:1.7.0" width="4.4104659cm" height="3.1385948cm" version="1.1" x="0cm" y="0cm" viewBox="0 0 4.4104659 3.1385948" enable-background="new 0 0 4.4104659 3.1385948" xml:space="preserve"><path d="M-2.3825191,3.3925958 A0.6,0.6 134.27088 0,1 -1.9636882,2.3629672 L0.3848846,2.3629672 A0.65,0.65 270 0,1 0.9794917,2.7503985 L1.7913849,4.5889933 A0.65,0.65 336.1745371 0,1 0.9854802,5.4662598 A9.030015,9.030015 108.9700096 0,1 -2.3825191,3.3925958z" transform="matrix(1,0,0,-1,2.5636882,5.501562)" fill="rgb(0,0,0)" shaper:cutDepth="0.15cm" stroke-linecap="round" stroke-linejoin="round" /><path d="M0.0393086,3.1940357 a0.25,0.25 0 1,1 0.5,0 a0.25,0.25 0 1,1 -0.5,0z" transform="matrix(1,0,0,-1,2.5636882,5.501562)" fill="rgb(255,255,255)" stroke="rgb(0,0,0)" stroke-width="0.0010cm" stroke-linecap="round" stroke-linejoin="round" shaper:cutDepth="0.15cm" /><path d="M0.9663875,4.7982801 a0.25,0.25 0 1,1 0.5,0 a0.25,0.25 0 1,1 -0.5,0z" transform="matrix(1,0,0,-1,2.5636882,5.501562)" fill="rgb(255,255,255)" stroke="rgb(0,0,0)" stroke-width="0.0010cm" stroke-linecap="round" stroke-linejoin="round" shaper:cutDepth="0.15cm" /><path d="M-2.1648734,2.9413916 a0.25,0.25 0 1,1 0.5,0 a0.25,0.25 0 1,1 -0.5,0z" transform="matrix(1,0,0,-1,2.5636882,5.501562)" fill="rgb(255,255,255)" stroke="rgb(0,0,0)" stroke-width="0.0010cm" stroke-linecap="round" stroke-linejoin="round" shaper:cutDepth="0.15cm" /></svg>