<?xml version="1.0" encoding="utf-8"?>
<!-- Generator: Fusion 360, Shaper Origin Export Add-In, Version 1.7.0  -->
<svg xmlns="http://www.w3.org/2000/svg" xmlns:xlink="http://www.w3.org/1999/xlink" xmlns:shaper="http://www.shapertools.com/namespaces/shaper" shaper:fusionaddin="version:1.7.0" width="14.70372cm" height="1.3823464cm" version="1.1" x="0cm" y="0cm" viewBox="0 0 14.70372 1.3823464" enable-background="new 0 0 14.70372 1.3823464" xml:space="preserve"><path d="M7.35186,-0.1911732 L7.35186,0.1911732 A0.5,0.5 0 0,1 6.85186,0.6911732 L-6.85186,0.6911732 A0.5,0.5 90 0,1 -7.35186,0.1911732 L-7.35186,-0.1911732 A0.5,0.5 180 0,1 -6.85186,-0.6911732 L6.85186,-0.6911732 A0.5,0.5 270 0,1 7.35186,-0.1911732z" transform="matrix(1,0,0,-1,7.35186,0.6911732)" fill="rgb(0,0,0)" shaper:cutDepth="0.15cm" stroke-linecap="round" stroke-linejoin="round" /><path d="M6.86848,0.2591786 A0.0508,0.0508 90 0,0 6.91928,0.2083786 L6.91928,-0.1523014 A0.0508,0.0508 0 0,0 6.86848,-0.2031014 L6.5078,-0.2031014 A0.0508,0.0508 270 0,0 6.457,-0.1523014 L6.457,0.2083786 A0.0508,0.0508 180 0,0 6.5078,0.2591786 L6.86848,0.2591786z" transform="matrix(1,0,0,-1,7.35186,0.6911732)" fill="rgb(255,255,255)" stroke="rgb(0,0,0)" stroke-width="0.0010cm" stroke-linecap="round" stroke-linejoin="round" shaper:cutDepth="0.15cm" /><path d="M4.32848,0.2591786 A0.0508,0.0508 90 0,0 4.37928,0.2083786 L4.37928,-0.1523014 A0.0508,0.0508 0 0,0 4.32848,-0.2031014 L3.9678,-0.2031014 A0.0508,0.0508 270 0,0 3.917,-0.1523014 L3.917,0.2083786 A0.0508,0.0508 180 0,0 3.9678,0.2591786 L4.32848,0.2591786z" transform="matrix(1,0,0,-1,7.35186,0.6911732)" fill="rgb(255,255,255)" stroke="rgb(0,0,0)" stroke-width="0.0010cm" stroke-linecap="round" stroke-linejoin="round" shaper:cutDepth="0.15cm" /></svg>