<?xml version="1.0" encoding="utf-8"?>
<!-- Generator: Fusion 360, Shaper Origin Export Add-In, Version 1.7.0  -->
<svg xmlns="http://www.w3.org/2000/svg" xmlns:xlink="http://www.w3.org/1999/xlink" xmlns:shaper="http://www.shapertools.com/namespaces/shaper" shaper:fusionaddin="version:1.7.0" width="18.3cm" height="18.7217302cm" version="1.1" x="0cm" y="0cm" viewBox="0 0 18.3 18.7217302" enable-background="new 0 0 18.3 18.7217302" xml:space="preserve"><path d="M0,16.03425 L0,0.78425 A0.75,0.75 180 0,1 0.75,0.03425 L17.55,0.03425 A0.75,0.75 270 0,1 18.3,0.78425 L18.3,16.03425 A2.7217302,2.7217302 0 1,1 12.8566558,16.0091013 L12.8566558,9.53425 A2,2 0 0,0 10.8566558,7.53425 L7.4433558,7.53425 A2,2 270 0,0 5.4433558,9.53425 L5.4433558,16.03425 A2.7216779,2.7216779 0 0,1 0,16.03425z" transform="matrix(1,0,0,-1,-0,18.7559802)" fill="rgb(0,0,0)" stroke-linecap="round" stroke-linejoin="round" /></svg>