<?xml version="1.0" encoding="utf-8"?>
<!-- Generator: Fusion 360, Shaper Origin Export Add-In, Version 1.7.0  -->
<svg xmlns="http://www.w3.org/2000/svg" xmlns:xlink="http://www.w3.org/1999/xlink" xmlns:shaper="http://www.shapertools.com/namespaces/shaper" shaper:fusionaddin="version:1.7.0" width="5.4004192cm" height="4.9202486cm" version="1.1" x="0cm" y="0cm" viewBox="0 0 5.4004192 4.9202486" enable-background="new 0 0 5.4004192 4.9202486" xml:space="preserve"><path d="M4.9917314,-0.6954489 L0.5612334,-0.6954489 A0.2,0.2 90 0,1 0.4161908,-0.757744 A0.6165698,0.6165698 136.486568 0,1 0.2895761,-0.956527 L0.1084571,-1.416873 A0.2469253,0.2469253 158.523285 0,1 0.2478324,-1.7370584 L0.7635262,-1.9399536 A0.5787754,0.5787754 248.523285 0,1 1.3101225,-1.8735525 L1.5710784,-1.6885834 A0.1,0.1 125.3295372 0,0 1.7256896,-1.7953264 L0.9262843,-4.870531 A0.55,0.55 159.2158547 0,1 1.6180995,-5.5862316 A5.9253375,5.9253375 288.839724 0,1 5.4789871,-1.3076178 A0.5,0.5 347.0360576 0,1 4.9917314,-0.6954489z" transform="matrix(1,0,0,-1,-0.0913122,-0.6954489)" fill="rgb(0,0,0)" shaper:cutDepth="0.15cm" stroke-linecap="round" stroke-linejoin="round" /><path d="M4.7848254,-1.1681401 a0.25,0.25 0 1,1 0.5,0 a0.25,0.25 0 1,1 -0.5,0z" transform="matrix(1,0,0,-1,-0.0913122,-0.6954489)" fill="rgb(255,255,255)" stroke="rgb(0,0,0)" stroke-width="0.0010cm" stroke-linecap="round" stroke-linejoin="round" shaper:cutDepth="0.15cm" /><path d="M2.7090626,-4.1571904 a0.25,0.25 0 1,1 0.5,0 a0.25,0.25 0 1,1 -0.5,0z" transform="matrix(1,0,0,-1,-0.0913122,-0.6954489)" fill="rgb(255,255,255)" stroke="rgb(0,0,0)" stroke-width="0.0010cm" stroke-linecap="round" stroke-linejoin="round" shaper:cutDepth="0.15cm" /><path d="M0.5207238,-1.2324332 a0.3154629,0.3154629 0 1,1 0.6309259,0 a0.3154629,0.3154629 0 1,1 -0.6309259,0z" transform="matrix(1,0,0,-1,-0.0913122,-0.6954489)" fill="rgb(255,255,255)" stroke="rgb(0,0,0)" stroke-width="0.0010cm" stroke-linecap="round" stroke-linejoin="round" shaper:cutDepth="0.15cm" /><path d="M2.8496418,-2.3265517 a0.25,0.25 0 1,1 0.5,0 a0.25,0.25 0 1,1 -0.5,0z" transform="matrix(1,0,0,-1,-0.0913122,-0.6954489)" fill="rgb(255,255,255)" stroke="rgb(0,0,0)" stroke-width="0.0010cm" stroke-linecap="round" stroke-linejoin="round" shaper:cutDepth="0.15cm" /><path d="M1.3836497,-4.8633412 a0.25,0.25 0 1,1 0.5,0 a0.25,0.25 0 1,1 -0.5,0z" transform="matrix(1,0,0,-1,-0.0913122,-0.6954489)" fill="rgb(255,255,255)" stroke="rgb(0,0,0)" stroke-width="0.0010cm" stroke-linecap="round" stroke-linejoin="round" shaper:cutDepth="0.15cm" /></svg>