<?xml version="1.0" encoding="utf-8"?>
<!-- Generator: Fusion 360, Shaper Origin Export Add-In, Version 1.7.0  -->
<svg xmlns="http://www.w3.org/2000/svg" xmlns:xlink="http://www.w3.org/1999/xlink" xmlns:shaper="http://www.shapertools.com/namespaces/shaper" shaper:fusionaddin="version:1.7.0" width="4.9431047cm" height="6.2042107cm" version="1.1" x="0cm" y="0cm" viewBox="0 0 4.9431047 6.2042107" enable-background="new 0 0 4.9431047 6.2042107" xml:space="preserve"><path d="M-2.6326026,3.4692938 A0.9,0.9 30.4903114 0,1 -4.05909,3.6341482 A8.5502047,8.5502047 136.3252146 0,1 -6.3877815,-1.4715003 A0.75,0.75 174.639232 0,1 -5.6410618,-2.2915703 L-2.4158658,-2.2915703 A0.9,0.9 270 0,1 -1.5161588,-1.4145331 L-1.448185,1.2487487 A0.7,0.7 358.5379812 0,1 -1.5447566,1.6217836 L-2.6326026,3.4692938z" transform="matrix(1,0,0,-1,6.3910618,3.9126404)" fill="rgb(0,0,0)" shaper:cutDepth="0.15cm" stroke-linecap="round" stroke-linejoin="round" /><path d="M-5.9340896,-1.3539627 a0.25,0.25 0 1,1 0.5,0 a0.25,0.25 0 1,1 -0.5,0z" transform="matrix(1,0,0,-1,6.3910618,3.9126404)" fill="rgb(255,255,255)" stroke="rgb(0,0,0)" stroke-width="0.0010cm" stroke-linecap="round" stroke-linejoin="round" shaper:cutDepth="0.15cm" /><path d="M-2.2331943,-0.9697683 a0.25,0.25 0 1,1 0.5,0 a0.25,0.25 0 1,1 -0.5,0z" transform="matrix(1,0,0,-1,6.3910618,3.9126404)" fill="rgb(255,255,255)" stroke="rgb(0,0,0)" stroke-width="0.0010cm" stroke-linecap="round" stroke-linejoin="round" shaper:cutDepth="0.15cm" /><path d="M-3.4816265,3.0324831 a0.25,0.25 0 1,1 0.5,0 a0.25,0.25 0 1,1 -0.5,0z" transform="matrix(1,0,0,-1,6.3910618,3.9126404)" fill="rgb(255,255,255)" stroke="rgb(0,0,0)" stroke-width="0.0010cm" stroke-linecap="round" stroke-linejoin="round" shaper:cutDepth="0.15cm" /><path d="M-5.6772337,0.1252044 a0.25,0.25 0 1,1 0.5,0 a0.25,0.25 0 1,1 -0.5,0z" transform="matrix(1,0,0,-1,6.3910618,3.9126404)" fill="rgb(255,255,255)" stroke="rgb(0,0,0)" stroke-width="0.0010cm" stroke-linecap="round" stroke-linejoin="round" shaper:cutDepth="0.15cm" /></svg>